<svg xmlns="http://www.w3.org/2000/svg" viewBox="0 0 220.69 179.3"><defs><style>.a{fill:#900;}.b{fill:#111;}</style></defs><title>logo</title><path class="a" d="M142.39,15.68A64.83,64.83,0,0,1,162.6,19a48.08,48.08,0,0,1,16.85,9.08Q192.33,39.41,192.34,58a44.45,44.45,0,0,1-8.4,26Q174.46,97.71,156,103.76L222.51,195l-92.77-90.23,4.3-8.69h7.42A25.17,25.17,0,0,0,161.09,87q9.07-10.54,9.08-27.92,0-32.72-31.84-32.72l-63.86-.1v-8.4Z" transform="translate(-1.82 -15.68)"/><path class="b" d="M16.67,60.05V177.22H1.82V16.09l104.4,118V35h14.84V179.58Z" transform="translate(-1.82 -15.68)"/></svg>